<svg viewBox="0 0 19 19" fill="none" xmlns="http://www.w3.org/2000/svg">
<path d="M5.83325 5.8335V3.50016C5.83325 2.56674 5.83325 2.10003 6.01491 1.74351C6.1747 1.42991 6.42966 1.17494 6.74327 1.01515C7.09979 0.833496 7.5665 0.833496 8.49992 0.833496H14.8333C15.7667 0.833496 16.2334 0.833496 16.5899 1.01515C16.9035 1.17494 17.1585 1.42991 17.3183 1.74351C17.4999 2.10003 17.4999 2.56674 17.4999 3.50016V9.8335C17.4999 10.7669 17.4999 11.2336 17.3183 11.5901C17.1585 11.9038 16.9035 12.1587 16.5899 12.3185C16.2334 12.5002 15.7667 12.5002 14.8333 12.5002H12.4999M3.49992 17.5002H9.83325C10.7667 17.5002 11.2334 17.5002 11.5899 17.3185C11.9035 17.1587 12.1585 16.9038 12.3183 16.5901C12.4999 16.2336 12.4999 15.7669 12.4999 14.8335V8.50016C12.4999 7.56674 12.4999 7.10003 12.3183 6.74351C12.1585 6.42991 11.9035 6.17494 11.5899 6.01515C11.2334 5.8335 10.7667 5.8335 9.83325 5.8335H3.49992C2.5665 5.8335 2.09979 5.8335 1.74327 6.01515C1.42966 6.17494 1.1747 6.42991 1.01491 6.74351C0.833252 7.10003 0.833252 7.56674 0.833252 8.50016V14.8335C0.833252 15.7669 0.833252 16.2336 1.01491 16.5901C1.1747 16.9038 1.42966 17.1587 1.74327 17.3185C2.09979 17.5002 2.5665 17.5002 3.49992 17.5002Z" stroke="currentColor" stroke-width="1.66667" stroke-linecap="round" stroke-linejoin="round"/>
</svg>
