<svg viewBox="0 0 122 22" fill="none" xmlns="http://www.w3.org/2000/svg">
<path d="M4.61364 21.527H0L7.02983 1.16335H12.5781L19.598 21.527H14.9844L9.88352 5.81676H9.72443L4.61364 21.527ZM4.32528 13.5227H15.223V16.8835H4.32528V13.5227Z" fill="currentColor"/>
<path d="M26.2053 1.16335V21.527H21.9695V1.16335H26.2053Z" fill="currentColor"/>
<path d="M37.7219 6.25426V9.43608H28.5245V6.25426H37.7219ZM30.6126 2.59517H34.8484V16.8338C34.8484 17.2249 34.908 17.5298 35.0273 17.7486C35.1467 17.9607 35.3124 18.1099 35.5245 18.196C35.7433 18.2822 35.9951 18.3253 36.2802 18.3253C36.479 18.3253 36.6779 18.3087 36.8768 18.2756C37.0756 18.2358 37.2281 18.206 37.3342 18.1861L38.0004 21.3381C37.7882 21.4044 37.4899 21.4806 37.1055 21.5668C36.721 21.6596 36.2537 21.7159 35.7035 21.7358C34.6826 21.7756 33.7878 21.6397 33.0188 21.3281C32.2565 21.0166 31.6632 20.5327 31.239 19.8764C30.8147 19.2202 30.6059 18.3916 30.6126 17.3906V2.59517Z" fill="currentColor"/>
<path d="M46.0618 20.4233V6.34375H49.6214V20.4233H46.0618ZM40.8018 15.1634V11.6037H54.8814V15.1634H40.8018Z" fill="currentColor"/>
<path d="M70.174 7.01989C70.0945 6.2178 69.7531 5.5947 69.1499 5.15057C68.5466 4.70644 67.728 4.48438 66.6939 4.48438C65.9912 4.48438 65.398 4.58381 64.9141 4.78267C64.4302 4.97491 64.059 5.24337 63.8004 5.58807C63.5485 5.93277 63.4226 6.32386 63.4226 6.76136C63.4093 7.12595 63.4856 7.44413 63.6513 7.71591C63.8236 7.98769 64.059 8.22301 64.3572 8.42188C64.6555 8.61411 65.0002 8.78315 65.3913 8.92898C65.7824 9.06818 66.2001 9.1875 66.6442 9.28693L68.4737 9.72443C69.362 9.9233 70.1773 10.1884 70.9197 10.5199C71.6622 10.8513 72.3052 11.259 72.8487 11.7429C73.3923 12.2268 73.8132 12.7969 74.1115 13.4531C74.4164 14.1094 74.5722 14.8617 74.5788 15.7102C74.5722 16.9564 74.254 18.0369 73.6243 18.9517C73.0012 19.8598 72.0997 20.5658 70.9197 21.0696C69.7465 21.5668 68.3312 21.8153 66.674 21.8153C65.0301 21.8153 63.5982 21.5634 62.3785 21.0597C61.1655 20.5559 60.2176 19.8101 59.5348 18.8224C58.8587 17.8281 58.504 16.5985 58.4709 15.1335H62.6371C62.6835 15.8163 62.879 16.3864 63.2237 16.8438C63.575 17.2945 64.0424 17.6359 64.6257 17.8679C65.2157 18.0933 65.8819 18.206 66.6243 18.206C67.3535 18.206 67.9865 18.0999 68.5234 17.8878C69.067 17.6757 69.4879 17.3807 69.7862 17.0028C70.0845 16.625 70.2337 16.1908 70.2337 15.7003C70.2337 15.2429 70.0978 14.8584 69.826 14.5469C69.5608 14.2353 69.1697 13.9702 68.6527 13.7514C68.1423 13.5327 67.5159 13.3338 66.7734 13.1548L64.5561 12.598C62.8392 12.1804 61.4837 11.5275 60.4893 10.6392C59.495 9.75095 59.0012 8.55445 59.0078 7.04972C59.0012 5.81676 59.3293 4.73958 59.9922 3.81818C60.6617 2.89678 61.5798 2.17756 62.7464 1.66051C63.9131 1.14347 65.2389 0.884944 66.7237 0.884944C68.2351 0.884944 69.5542 1.14347 70.6811 1.66051C71.8146 2.17756 72.6963 2.89678 73.326 3.81818C73.9557 4.73958 74.2805 5.80682 74.3004 7.01989H70.174Z" fill="currentColor"/>
<path d="M81.631 12.6974V21.527H77.3952V1.16335H81.5117V8.94886H81.6907C82.0354 8.04735 82.5922 7.34138 83.3612 6.83097C84.1301 6.31392 85.0946 6.0554 86.2546 6.0554C87.3152 6.0554 88.2399 6.28741 89.0288 6.75142C89.8242 7.20881 90.4407 7.86837 90.8782 8.73011C91.3223 9.58523 91.5411 10.6094 91.5344 11.8026V21.527H87.2987V12.5582C87.3053 11.617 87.0666 10.8845 86.5827 10.3608C86.1055 9.83712 85.436 9.57529 84.5742 9.57529C83.9975 9.57529 83.4871 9.69792 83.043 9.94318C82.6055 10.1884 82.2608 10.5464 82.0089 11.017C81.7636 11.4811 81.6377 12.0412 81.631 12.6974Z" fill="currentColor"/>
<path d="M94.8679 21.527V6.25426H99.1037V21.527H94.8679ZM96.9957 4.28551C96.366 4.28551 95.8258 4.0767 95.375 3.65909C94.9309 3.23485 94.7088 2.72775 94.7088 2.13778C94.7088 1.55445 94.9309 1.05398 95.375 0.636365C95.8258 0.212122 96.366 0 96.9957 0C97.6255 0 98.1624 0.212122 98.6065 0.636365C99.0573 1.05398 99.2827 1.55445 99.2827 2.13778C99.2827 2.72775 99.0573 3.23485 98.6065 3.65909C98.1624 4.0767 97.6255 4.28551 96.9957 4.28551Z" fill="currentColor"/>
<path d="M112.224 6.25426V9.43608H101.284V6.25426H112.224ZM103.441 21.527V5.15057C103.441 4.04356 103.657 3.12547 104.088 2.39631C104.525 1.66714 105.122 1.12027 105.877 0.755682C106.633 0.391099 107.492 0.208807 108.453 0.208807C109.102 0.208807 109.696 0.258523 110.233 0.357956C110.776 0.457387 111.181 0.546876 111.446 0.626422L110.69 3.80824C110.524 3.75521 110.319 3.70549 110.074 3.65909C109.835 3.61269 109.59 3.58949 109.338 3.58949C108.715 3.58949 108.28 3.73532 108.035 4.02699C107.79 4.31203 107.667 4.71307 107.667 5.23011V21.527H103.441Z" fill="currentColor"/>
<path d="M121.421 6.25426V9.43608H112.224V6.25426H121.421ZM114.312 2.59517H118.548V16.8338C118.548 17.2249 118.607 17.5298 118.727 17.7486C118.846 17.9607 119.012 18.1099 119.224 18.196C119.442 18.2822 119.694 18.3253 119.979 18.3253C120.178 18.3253 120.377 18.3087 120.576 18.2756C120.775 18.2358 120.927 18.206 121.033 18.1861L121.7 21.3381C121.487 21.4044 121.189 21.4806 120.805 21.5668C120.42 21.6596 119.953 21.7159 119.403 21.7358C118.382 21.7756 117.487 21.6397 116.718 21.3281C115.956 21.0166 115.362 20.5327 114.938 19.8764C114.514 19.2202 114.305 18.3916 114.312 17.3906V2.59517Z" fill="currentColor"/>
</svg>
